<svg xmlns="http://www.w3.org/2000/svg" height="1227" width="1627" version="1.1" xmlns:xlink="http://www.w3.org/1999/xlink" xmlns:svgjs="http://svgjs.com/svgjs"><rect fill="#000000" width="1627" height="1227"></rect><g><path d="M805.17 911.22L765.27 1045.48" stroke="#000000" stroke-width="4" stroke-linecap="round" stroke-linejoin="round" opacity="1" fill="none"></path><path d="M766.93 889.96L718.02 954.7" stroke="#000000" stroke-width="4" stroke-linecap="round" stroke-linejoin="round" opacity="1" fill="none"></path></g><g><path d="M851.67 259.2L866.95 193.6" stroke="#000000" stroke-width="4" stroke-linecap="round" stroke-linejoin="round" opacity="1" fill="none"></path><path d="M870.06 330.26L938.11 249.87" stroke="#000000" stroke-width="4" stroke-linecap="round" stroke-linejoin="round" opacity="1" fill="none"></path></g><g><path d="M694.47 451.93H342.35C318.5 451.93 299.22 471.2 299.22 495.05V825.88C299.22 849.73 318.5 869.01 342.35 869.01H694.47C718.32 869.01 737.6 849.73 737.6 825.88V495.05C737.6 471.2 718.24 451.93 694.47 451.93Z" fill="#9dd232" opacity="1" stroke-width="4" stroke="#000000"></path><path d="M346.38 528.5C356.17 528.5 364.11 520.56 364.11 510.77 364.11 500.97 356.17 493.04 346.38 493.04 336.58 493.04 328.65 500.97 328.65 510.77 328.65 520.56 336.58 528.5 346.38 528.5Z" fill="#ffffff" opacity="1" stroke-width="4" stroke="#000000"></path><path d="M397.86 528.5C407.66 528.5 415.59 520.56 415.59 510.77 415.59 500.97 407.66 493.04 397.86 493.04 388.07 493.04 380.13 500.97 380.13 510.77 380.13 520.56 388.07 528.5 397.86 528.5Z" fill="#ffffff" opacity="1" stroke-width="4" stroke="#000000"></path><path d="M449.43 528.5C459.22 528.5 467.16 520.56 467.16 510.77 467.16 500.97 459.22 493.04 449.43 493.04 439.63 493.04 431.7 500.97 431.7 510.77 431.7 520.56 439.63 528.5 449.43 528.5Z" fill="#ffffff" opacity="1" stroke-width="4" stroke="#000000"></path></g><g><path d="M1265.68 348.11L957.98 348.11C922 348.11 892.84 377.27 892.84 413.24V719.35C892.84 755.33 922 784.49 957.98 784.49H1265.68C1301.66 784.49 1330.82 755.33 1330.82 719.35V413.24C1330.82 377.27 1301.66 348.11 1265.68 348.11Z" fill="#f24e31" opacity="1" stroke-width="4" stroke="#000000"></path><path d="M1222.59 406.14L1272.64 456.19" stroke="#000000" stroke-width="4" stroke-linecap="round" stroke-linejoin="round" opacity="1" fill="none"></path><path d="M1222.59 456.19L1272.64 406.14" stroke="#000000" stroke-width="4" stroke-linecap="round" stroke-linejoin="round" opacity="1" fill="none"></path></g><g><path d="M574.19 579.46C573.59 572.34 574.78 563.55 573.23 555 571.45 545.38 566.58 536.11 560.53 528.28 549.13 513.31 515.04 508.8 486.18 521.39 460.41 532.43 461.95 555.59 461.95 579.46L458.75 627.33V650.13 654.64L461.24 689.56C461.24 689.56 461.24 689.68 461.36 689.68L533.8 700.96C533.92 700.96 533.92 700.96 533.92 700.84V647.63 637.06C533.92 636.95 534.04 636.95 534.04 636.95 535.94 637.42 556.49 642.29 567.65 631.96 582.97 618.3 575.49 594.55 574.19 579.46Z" fill="#a66241" opacity="1" stroke-width="4" stroke="#000000"></path><path d="M513.02 628.63L533.8 647.52C533.92 647.63 534.04 647.52 534.04 647.4V637.06C534.04 637.06 534.04 636.95 533.92 636.95 532.85 636.71 523.83 634.33 513.26 628.39 513.02 628.39 512.9 628.51 513.02 628.63Z" fill="#a6624100" opacity="0" stroke-width="4" stroke="#ffffff00"></path><path d="M564.09 523.88C552.81 508.8 513.97 498.7 485.11 511.29 459.34 522.34 458.75 555.12 458.75 578.99V627.33C458.75 627.44 458.86 627.44 458.86 627.44 468.84 626.73 478.22 621.74 484.99 614.38V614.26C483.69 612.6 462.55 584.93 479.05 571.15 493.42 559.15 510.88 581.13 512.43 583.26 512.43 583.38 512.55 583.26 512.66 583.26L522.64 560.46C522.64 560.46 522.64 560.34 522.76 560.34L573 555C573.12 555 573.12 554.88 573.12 554.88 572.4 543.72 570.38 532.31 564.09 523.88Z" fill="#17151c" opacity="1" stroke-width="4" stroke="#000000"></path><path d="M632.14 730.3V730.18C620.62 715.57 602.21 693.95 586.89 678.51 564.21 655.83 538.56 650.84 534.04 650.13 533.92 650.13 533.92 650.13 533.92 650.25 533.8 652.39 532.26 679.7 503.88 679.7 476.32 679.7 459.7 651.91 458.75 650.25 458.75 650.25 458.63 650.13 458.63 650.25 441.88 654.76 426.44 662.36 412.66 672.58 398.29 683.03 371.22 712.01 349.48 750.13V750.25L399.72 788.13C399.72 788.13 399.72 788.13 399.72 788.25L405.54 869.37C405.54 869.49 405.54 869.49 405.66 869.49H581.55C581.67 869.49 581.67 869.37 581.67 869.37L574.9 805.95C574.9 805.83 575.02 805.83 575.14 805.83 578.1 809.99 581.67 813.67 585.35 817.59H585.47L596.75 806.3 632.14 730.3Z" fill="#f24e31" opacity="1" stroke-width="4" stroke="#000000"></path><path d="M432.26 790.03L419.79 814.86 405.78 869.25C405.78 869.37 405.78 869.37 405.89 869.37H444.61C444.73 869.37 444.73 869.37 444.73 869.25L441.05 774.83C441.05 774.71 440.93 774.71 440.81 774.83L432.26 790.03Z" fill="#f24e3100" opacity="0" stroke-width="4" stroke="#ffffff00"></path><path d="M795.44 634.57C795.44 621.98 741.41 644.67 737.61 646.33 737.49 646.33 737.37 646.33 737.49 646.21 737.96 644.43 740.58 633.26 736.3 632.2 731.55 631.01 718.48 640.51 700.79 662.96 684.04 684.1 646.04 741.46 644.02 744.67 644.02 744.78 643.9 744.78 643.78 744.67 643.19 743.95 640.34 740.39 636.06 734.93 634.87 733.5 633.69 731.96 632.38 730.3 632.38 730.18 632.26 730.3 632.14 730.3L585.59 817.47V817.59C590.1 822.22 596.16 827.45 603.52 832.2 615.75 840.03 631.67 846.69 651.03 846.69 703.88 846.69 734.4 730.18 735.23 727.09 735.23 727.09 735.23 726.97 735.35 726.97 743.19 725.78 748.89 719.37 749.48 718.78H749.6C754.71 720.08 760.17 719.73 764.92 717.59 777.15 712.36 774.66 704.17 774.42 703.34V703.22C784.4 692.05 773.47 684.21 772.17 683.26 772.05 683.26 772.05 683.15 772.17 683.03 773.12 682.31 778.82 677.56 775.61 668.89 773.35 662.72 762.31 657.85 760.41 657.14 760.29 657.14 760.29 657.02 760.41 656.9 763.73 655.59 795.44 642.41 795.44 634.57Z" fill="#a66241" opacity="1" stroke-width="4" stroke="#000000"></path><path d="M633.92 759.63L643.66 744.9V744.78C643.31 744.31 640.34 740.63 636.06 735.28 635.94 735.16 635.82 735.28 635.82 735.28L633.69 759.51C633.69 759.63 633.92 759.75 633.92 759.63Z" fill="#a6624100" opacity="0" stroke-width="4" stroke="#ffffff00"></path><path d="M570.38 759.87L575.02 805.35C578.1 809.75 581.79 813.67 585.59 817.59 585.59 817.59 595.09 827.33 603.52 832.2L570.5 759.75C570.5 759.75 570.38 759.75 570.38 759.87Z" fill="#f24e3100" opacity="0" stroke-width="4" stroke="#ffffff00"></path><path d="M643.66 744.67L633.92 759.63" stroke="#000000" stroke-width="4" stroke-linecap="round" stroke-linejoin="round" opacity="1" fill="none"></path><path d="M570.38 759.87L575.02 805.35" stroke="#000000" stroke-width="4" stroke-linecap="round" stroke-linejoin="round" opacity="1" fill="none"></path><path d="M489.74 586.23L498.65 595.02" stroke="#000000" stroke-width="4" stroke-linecap="round" stroke-linejoin="round" opacity="1" fill="none"></path><path d="M533.92 637.18C523.47 634.21 513.02 628.63 513.02 628.63" stroke="#000000" stroke-width="4" stroke-linecap="round" stroke-linejoin="round" opacity="1" fill="none"></path><path d="M545.56 606.42C547.46 609.15 550.55 610.94 553.88 611.17" stroke="#000000" stroke-width="4" stroke-linecap="round" stroke-linejoin="round" opacity="1" fill="none"></path><path d="M576.2 853.93C576.8 849.06 543.07 837.3 512.19 830.3 480.84 823.05 423.47 815.33 419.91 814.86 419.79 814.86 419.79 814.74 419.79 814.74 420.5 813.43 425.97 803.34 432.14 790.15V790.03L349.6 750.25H349.48C338.91 768.78 325.97 793.24 320.03 814.86 302.21 881.25 349.6 884.81 373.35 886 396.99 887.18 458.98 882.55 459.93 882.43 460.76 882.67 512.19 897.87 527.51 897.87 541.64 897.87 541.88 891.82 541.76 890.87 541.76 890.75 541.76 890.75 541.88 890.75 543.42 890.87 558.15 891.34 557.2 881.36 557.2 881.25 557.2 881.25 557.32 881.25 558.86 881.01 577.04 877.68 566.7 869.37 561.12 864.86 533.45 854.05 528.34 851.91 528.22 851.91 528.22 851.67 528.34 851.67 541.88 853.1 575.02 863.31 576.2 853.93Z" fill="#a66241" opacity="1" stroke-width="4" stroke="#000000"></path><path d="M419.79 814.86L442.71 818.06" stroke="#000000" stroke-width="4" stroke-linecap="round" stroke-linejoin="round" opacity="1" fill="none"></path><path d="M419.79 814.86L441.05 774.83" stroke="#000000" stroke-width="4" stroke-linecap="round" stroke-linejoin="round" opacity="1" fill="none"></path><path d="M541.88 890.63L503.88 877.68" stroke="#000000" stroke-width="4" stroke-linecap="round" stroke-linejoin="round" opacity="1" fill="none"></path><path d="M557.32 881.25L511 861.06" stroke="#000000" stroke-width="4" stroke-linecap="round" stroke-linejoin="round" opacity="1" fill="none"></path><path d="M528.34 851.67L516.82 847.64" stroke="#000000" stroke-width="4" stroke-linecap="round" stroke-linejoin="round" opacity="1" fill="none"></path><path d="M737.37 646.45L730.72 662.6C730.72 662.6 732.62 686.71 723.12 699.77" stroke="#000000" stroke-width="4" stroke-linecap="round" stroke-linejoin="round" opacity="1" fill="none"></path><path d="M772.17 683.26C759.1 691.58 746.99 690.63 744.49 688.01 740.93 684.45 742.12 676.14 754 671.39" stroke="#000000" stroke-width="4" stroke-linecap="round" stroke-linejoin="round" opacity="1" fill="none"></path><path d="M774.42 703.22C767.3 706.78 751.62 710.46 746.87 704.52 742.12 698.58 749.24 691.46 749.24 691.46" stroke="#000000" stroke-width="4" stroke-linecap="round" stroke-linejoin="round" opacity="1" fill="none"></path><path d="M749.48 718.66C745.56 715.69 742.12 711.41 745.09 707.49 745.56 706.78 746.16 706.19 746.87 705.71" stroke="#000000" stroke-width="4" stroke-linecap="round" stroke-linejoin="round" opacity="1" fill="none"></path><path d="M556.96 589.91C557.68 591.7 558.63 594.55 558.15 596.09 557.68 597.04 556.85 597.87 555.78 598.23" stroke="#000000" stroke-width="4" stroke-linecap="round" stroke-linejoin="round" opacity="1" fill="none"></path><path d="M539.98 585.64C541.94 585.64 543.54 584.05 543.54 582.08 543.54 580.1 541.94 578.51 539.98 578.51 538.01 578.51 536.42 580.1 536.42 582.08 536.42 584.05 538.01 585.64 539.98 585.64Z" fill="#17151c" opacity="1" stroke-width="4" stroke="#000000"></path><path d="M565.52 583.86C567.47 583.86 569.08 582.27 569.08 580.29 569.08 578.32 567.47 576.73 565.52 576.73 563.54 576.73 561.95 578.32 561.95 580.29 561.95 582.27 563.54 583.86 565.52 583.86Z" fill="#17151c" opacity="1" stroke-width="4" stroke="#000000"></path><path d="M743.31 710.82C743.9 707.49 745.68 706.3 746.99 705 746.99 705 746.99 704.88 746.99 704.76 746.04 704.17 742.36 698.94 748.65 690.98 748.65 690.87 748.65 690.87 748.65 690.75 747.34 690.15 737.01 684.81 746.39 676.02V675.9C745.21 674.83 732.26 663.91 730.72 662.6 730.6 662.6 730.6 662.6 730.48 662.72 730.48 667.82 732.5 687.18 723.12 699.77V699.89C730.48 713.79 742.24 711.17 743.31 710.82 743.31 710.94 743.31 710.94 743.31 710.82Z" fill="#a6624100" opacity="0" stroke-width="4" stroke="#ffffff00"></path></g><g><path d="M996.58 508.47C996.58 501.03 996.12 489.49 996.88 478.41 996.88 478.33 996.96 478.26 996.96 478.26L1065.51 439.46C1065.59 439.39 1065.74 439.46 1065.74 439.54L1087.84 469.53V469.6L1109.55 540.59C1109.55 540.59 1109.55 540.59 1109.55 540.67 1111.22 558.05 1112.36 571.57 1112.43 572.02 1112.36 572.86 1108.18 632.38 1073.49 632.38 1038.94 632.38 1043.27 585.76 1043.34 584.78L1040.99 562.08C1040.99 561.92 1040.84 561.85 1040.69 561.92 1038.56 563.14 1023.98 571.11 1008.34 562.53 991.03 552.97 996.58 522.82 996.58 508.47Z" fill="#f49e73" opacity="1" stroke-width="4" stroke="#000000"></path><path d="M1042.51 576.05L1041.07 561.77C1041.07 561.77 1054.58 554.94 1061.26 550.54L1042.51 576.05Z" fill="#f49e7300" opacity="0" stroke-width="4" stroke="#ffffff00"></path><path d="M1157.76 686.36L1171.05 739.81 1178.41 681.58 1157.76 686.36Z" fill="#f49e7300" opacity="0" stroke-width="4" stroke="#ffffff00"></path><path d="M998.47 465.35C1000.22 451.84 1031.5 430.65 1055.26 430.65 1078.35 430.65 1086.17 449.94 1090.34 481.75 1090.64 484.1 1103.55 483.27 1106.06 505.67 1107.65 520.17 1108.79 532.24 1109.63 540.59 1106.89 540.67 1103.78 540.44 1100.29 539.91 1095.05 539.15 1088.59 537.4 1083.81 533.83 1083.81 533.83 1107.88 506.5 1087.46 493.37 1076.37 486.23 1058.07 509.23 1058.07 509.23 1058.07 509.23 1046.15 494.96 1052.53 476.66 1019.2 494.13 996.88 478.33 996.88 478.33 997.26 467.93 998.4 465.5 998.47 465.35Z" fill="#eeeeee" opacity="1" stroke-width="4" stroke="#000000"></path><path d="M1079.56 512.5L1072.8 520.39" stroke="#000000" stroke-width="4" stroke-linecap="round" stroke-linejoin="round" opacity="1" fill="none"></path><path d="M1015.71 519.64C1014.95 521.31 1013.96 524.04 1014.42 525.56 1014.87 526.54 1015.71 527.3 1016.7 527.68" stroke="#000000" stroke-width="4" stroke-linecap="round" stroke-linejoin="round" opacity="1" fill="none"></path><path d="M1025.96 531.56C1026.03 534.52 1023.68 537.02 1020.64 537.1 1020.57 537.1 1020.49 537.1 1020.42 537.1" stroke="#000000" stroke-width="4" stroke-linecap="round" stroke-linejoin="round" opacity="1" fill="none"></path><path d="M1041.07 561.7L1055.72 553.88" stroke="#000000" stroke-width="4" stroke-linecap="round" stroke-linejoin="round" opacity="1" fill="none"></path><path d="M1030.29 510.9C1031.84 510.9 1033.1 509.64 1033.1 508.1 1033.1 506.55 1031.84 505.29 1030.29 505.29 1028.74 505.29 1027.48 506.55 1027.48 508.1 1027.48 509.64 1028.74 510.9 1030.29 510.9Z" fill="#17151c" opacity="1" stroke-width="4" stroke="#000000"></path><path d="M1006.52 510.9C1008.07 510.9 1009.33 509.64 1009.33 508.1 1009.33 506.55 1008.07 505.29 1006.52 505.29 1004.97 505.29 1003.71 506.55 1003.71 508.1 1003.71 509.64 1004.97 510.9 1006.52 510.9Z" fill="#17151c" opacity="1" stroke-width="4" stroke="#000000"></path><path d="M1092.69 412.43C1107.37 412.43 1119.27 400.54 1119.27 385.86 1119.27 371.18 1107.37 359.29 1092.69 359.29 1078.02 359.29 1066.12 371.18 1066.12 385.86 1066.12 400.54 1078.02 412.43 1092.69 412.43Z" fill="#000000" opacity="1" stroke-width="4" stroke="#000000"></path><path d="M1102.34 475.45C1100.51 465.43 1101.12 454.95 1104.84 445.46 1105.22 444.47 1105.53 443.49 1105.75 442.42 1109.4 426.63 1094.21 409.62 1071.82 404.46 1049.42 399.3 1028.31 407.88 1024.67 423.75 1024.59 424.13 1024.52 424.5 1024.44 424.88 1023.15 432.86 1018.82 440.07 1012.44 445 1008.8 447.66 1005.54 450.93 1002.8 454.57 1000.75 457.45 999.31 461.25 998.32 465.65L1106.06 505.51C1104.99 495.72 1103.78 486.46 1102.79 479.17 1102.79 477.88 1102.56 476.66 1102.34 475.45Z" fill="#000000" opacity="1" stroke-width="4" stroke="#000000"></path><path d="M1241.2 649.08C1217.51 617.8 1186.15 589.56 1162.54 580.37V580.3C1161.48 579.92 1160.34 579.54 1159.28 579.16 1134.3 570.81 1112.51 572.02 1112.51 572.02 1112.51 572.02 1097.4 606.95 1069.61 606.95 1045.77 606.95 1043.42 584.7 1043.42 584.7 1043.42 584.7 1026.41 588.72 1008.95 606.95 1008.95 606.95 985.95 631.24 967.04 670.04L1018.06 704.73 1021.63 741.94 1164.59 790.37 1175.6 703.82 1182.81 710.05 1241.2 649.08Z" fill="#9acd32" opacity="1" stroke-width="4" stroke="#000000"></path><path d="M1175.6 703.82L1159.35 687.65" stroke="#000000" stroke-width="4" stroke-linecap="round" stroke-linejoin="round" opacity="1" fill="none"></path><path d="M1115.32 756.21C1095.5 746.72 1023.23 735.56 1023.23 735.56L1019.81 704.81 967.04 670.04C961.12 682.11 954.52 695.32 951.33 709.74 948.97 720.68 949.13 740.87 952.09 752.19 955.73 765.93 961.8 777.24 975.77 781.72L1129.97 816.42 1144.7 818.92C1144.7 818.92 1152.67 818.92 1151.08 810.19 1155.03 810.95 1157.76 809.81 1159.81 807.84 1162.16 805.48 1159.81 799.86 1159.81 799.86 1159.81 799.86 1165.35 799.11 1161.4 790.37 1157.61 782.1 1135.14 765.78 1115.32 756.21Z" fill="#f49e73" opacity="1" stroke-width="4" stroke="#000000"></path><path d="M1023.23 735.56L1019.81 704.81 1009.86 698.2 1004.85 738.6 1023.23 735.56Z" fill="#f49e7300" opacity="0" stroke-width="4" stroke="#ffffff00"></path><path d="M1023.23 735.56L1002.57 738.98" stroke="#000000" stroke-width="4" stroke-linecap="round" stroke-linejoin="round" opacity="1" fill="none"></path><path d="M1065.89 802.07L1129.97 816.49 1144.7 819C1144.7 819 1152.67 819 1151.08 810.27 1155.03 811.03 1157.76 809.89 1159.81 807.91 1162.16 805.56 1159.81 799.94 1159.81 799.94L1121.09 792.88 1065.89 802.07Z" fill="#f49e7300" opacity="0" stroke-width="4" stroke="#ffffff00"></path><path d="M1159.81 799.86C1141.59 786.35 1110.61 768.89 1110.61 768.89" stroke="#000000" stroke-width="4" stroke-linecap="round" stroke-linejoin="round" opacity="1" fill="none"></path><path d="M1150.62 810.65C1131.95 799.11 1102.56 781.64 1102.56 781.64" stroke="#000000" stroke-width="4" stroke-linecap="round" stroke-linejoin="round" opacity="1" fill="none"></path><path d="M1132.02 815.73C1118.51 808.6 1094.67 795.92 1094.67 795.92" stroke="#000000" stroke-width="4" stroke-linecap="round" stroke-linejoin="round" opacity="1" fill="none"></path><path d="M1241.12 648.93L1182.36 709.67 1200.28 726.07 1148.65 787.19C1148.65 787.19 1124.35 790.37 1112.43 795.16 1100.51 799.94 1092.69 803.36 1089.43 807.08 1086.32 810.57 1085.48 814.21 1092.92 817.25 1085.86 827.73 1080.7 838.74 1079.86 843.6 1078.27 853.09 1084.65 853.92 1084.65 853.92 1087 864.25 1096.57 860.3 1096.57 860.3 1096.57 860.3 1096.57 865.84 1106.13 864.25 1117.98 862.27 1132.78 845.11 1134.53 843.06H1134.6C1133.24 845.8 1121.01 871.31 1130.81 868.27 1144.47 864.1 1157 838.13 1157 838.13 1195.87 836.54 1195.87 819.91 1195.87 819.91 1195.87 819.91 1272.86 777.01 1276.05 728.57 1277.41 706.94 1262.23 676.72 1241.12 648.93Z" fill="#f49e73" opacity="1" stroke-width="4" stroke="#000000"></path><path d="M1192 718.78L1200.28 726.07 1215.46 709.9 1192 718.78Z" fill="#f49e7300" opacity="0" stroke-width="4" stroke="#ffffff00"></path><path d="M1200.28 726.07L1210.6 714.91" stroke="#000000" stroke-width="4" stroke-linecap="round" stroke-linejoin="round" opacity="1" fill="none"></path><path d="M1084.65 853.92C1084.65 853.92 1091.56 840.41 1113.8 814.21" stroke="#000000" stroke-width="4" stroke-linecap="round" stroke-linejoin="round" opacity="1" fill="none"></path><path d="M1092.92 817.25C1095.28 814.06 1098.69 808.6 1100.29 807.76" stroke="#000000" stroke-width="4" stroke-linecap="round" stroke-linejoin="round" opacity="1" fill="none"></path><path d="M1096.57 860.3C1096.57 860.3 1111.75 841.32 1128.38 823.86" stroke="#000000" stroke-width="4" stroke-linecap="round" stroke-linejoin="round" opacity="1" fill="none"></path><path d="M1134.53 843.06C1138.48 838.28 1141.36 834.49 1141.36 834.49" stroke="#000000" stroke-width="4" stroke-linecap="round" stroke-linejoin="round" opacity="1" fill="none"></path><path d="M1019.81 704.81L1014.49 658.57" stroke="#000000" stroke-width="4" stroke-linecap="round" stroke-linejoin="round" opacity="1" fill="none"></path></g><g><path d="M750.65 378.26L837.42 361.08C840.99 360.38 844.66 360.38 848.24 361.09 851.81 361.8 855.2 363.21 858.22 365.24 861.25 367.26 863.84 369.86 865.87 372.89 867.88 375.92 869.28 379.32 869.99 382.89L877.05 418.55C877.76 422.13 877.76 425.8 877.05 429.37 876.33 432.94 874.92 436.33 872.9 439.36 870.88 442.38 868.28 444.98 865.25 447 862.22 449.02 858.82 450.42 855.25 451.12L768.48 468.3C764.92 469.01 761.24 469.01 757.67 468.3 754.1 467.59 750.71 466.18 747.68 464.15 744.66 462.13 742.06 459.53 740.04 456.5 738.03 453.47 736.62 450.07 735.91 446.5L728.85 410.83C728.14 407.26 728.15 403.59 728.86 400.02 729.57 396.45 730.98 393.05 733.01 390.03 735.03 387.01 737.63 384.41 740.66 382.39 743.69 380.37 747.09 378.97 750.65 378.26Z" fill="#9acd32" opacity="1" stroke-width="4" stroke="#000000"></path><path d="M786.21 438.24L760.03 423.46 778.63 399.92" stroke="#000000" stroke-width="4" stroke-linecap="round" stroke-linejoin="round" opacity="1" fill="none"></path><path d="M819.71 391.78L845.88 406.46 827.3 430.11" stroke="#000000" stroke-width="4" stroke-linecap="round" stroke-linejoin="round" opacity="1" fill="none"></path><path d="M805.36 393.35L800.42 435.96" stroke="#000000" stroke-width="4" stroke-linecap="round" stroke-linejoin="round" opacity="1" fill="none"></path></g><g><path d="M812.94 867.71L919.06 971.29 841.83 1021.47 812.94 867.71Z" fill="#9acd3200" opacity="0" stroke-width="4" stroke="#ffffff00"></path><path d="M812.94 867.71L952.07 978.98 874.83 1029.16 812.94 867.71Z" fill="#9acd32" opacity="1" stroke-width="4" stroke="#000000"></path></g><g><path d="M643.07 332.67C661.16 332.67 675.82 318.01 675.82 299.92 675.82 281.82 661.16 267.16 643.07 267.16 624.97 267.16 610.31 281.82 610.31 299.92 610.31 318.01 624.97 332.67 643.07 332.67Z" fill="#f24e31" opacity="1" stroke-width="4" stroke="#000000"></path></g><g><path d="M219.72 694.24C235.85 694.24 248.93 681.16 248.93 665.03 248.93 648.9 235.85 635.82 219.72 635.82 203.59 635.82 190.51 648.9 190.51 665.03 190.51 681.16 203.59 694.24 219.72 694.24Z" fill="#9acd32" opacity="1" stroke-width="4" stroke="#000000"></path></g><g><path d="M1391.22 521.5L1372.95 547.24 1400.99 532.19 1414.36 563 1417.24 530.66 1444.15 542.62 1423.98 518.71 1452.92 499.03 1419.69 504.3 1420.24 467.09 1404.67 501.85 1381.56 481.62 1392.1 509.21 1359.4 515.12 1391.22 521.5Z" fill="#9dd232" opacity="1" stroke-width="4" stroke="#000000"></path></g><g><path d="M1361.32 672.17L1450.99 693.26" stroke="#000000" stroke-width="4" stroke-linecap="round" stroke-linejoin="round" opacity="1" fill="none"></path></g><g><path d="M144.24 461.59C206.74 423.87 249.73 435.74 265.03 450.95 285.25 471.08 266.7 516.44 232.85 526.64 199.01 536.84 203.23 494.11 251.84 468.97 295.8 446.2 342.57 457.37 352.42 488.75 358.66 508.8 353.38 538.69 329.65 553.54 308.46 566.82 300.55 538.42 328.5 531.74 362.09 523.65 385.74 554.42 392.68 564.71" stroke="#000000" stroke-width="4" stroke-linecap="round" stroke-linejoin="round" opacity="1" fill="none"></path></g></svg>